name C:\Users\r0593348\3dpredictsim\Results\batch_windlass\Pog_s1_tmt_bCst_d05_k1500_WL30_ig24.mot
datacolumns 128
datarows 4
range 0.52324204 0.55463657
endheader
time	pelvis_tilt	pelvis_list	pelvis_rotation	pelvis_tx	pelvis_ty	pelvis_tz	hip_flexion_l	hip_adduction_l	hip_rotation_l	hip_flexion_r	hip_adduction_r	hip_rotation_r	knee_angle_l	knee_angle_r	ankle_angle_l	ankle_angle_r	subtalar_angle_l	subtalar_angle_r	tmt_angle_l	tmt_angle_r	mtp_angle_l	mtp_angle_r	lumbar_extension	lumbar_bending	lumbar_rotation	arm_flex_l	arm_add_l	arm_rot_l	arm_flex_r	arm_add_r	arm_rot_r	elbow_flex_l	elbow_flex_r	pro_sup_l	pro_sup_r	glut_med1_l/activation	glut_med2_l/activation	glut_med3_l/activation	glut_min1_l/activation	glut_min2_l/activation	glut_min3_l/activation	semimem_l/activation	semiten_l/activation	bifemlh_l/activation	bifemsh_l/activation	sar_l/activation	add_long_l/activation	add_brev_l/activation	add_mag1_l/activation	add_mag2_l/activation	add_mag3_l/activation	tfl_l/activation	pect_l/activation	grac_l/activation	glut_max1_l/activation	glut_max2_l/activation	glut_max3_l/activation	iliacus_l/activation	psoas_l/activation	quad_fem_l/activation	gem_l/activation	peri_l/activation	rect_fem_l/activation	vas_med_l/activation	vas_int_l/activation	vas_lat_l/activation	med_gas_l/activation	lat_gas_l/activation	soleus_l/activation	tib_post_l/activation	flex_dig_l/activation	flex_hal_l/activation	tib_ant_l/activation	per_brev_l/activation	per_long_l/activation	per_tert_l/activation	ext_dig_l/activation	ext_hal_l/activation	ercspn_l/activation	intobl_l/activation	extobl_l/activation	glut_med1_r/activation	glut_med2_r/activation	glut_med3_r/activation	glut_min1_r/activation	glut_min2_r/activation	glut_min3_r/activation	semimem_r/activation	semiten_r/activation	bifemlh_r/activation	bifemsh_r/activation	sar_r/activation	add_long_r/activation	add_brev_r/activation	add_mag1_r/activation	add_mag2_r/activation	add_mag3_r/activation	tfl_r/activation	pect_r/activation	grac_r/activation	glut_max1_r/activation	glut_max2_r/activation	glut_max3_r/activation	iliacus_r/activation	psoas_r/activation	quad_fem_r/activation	gem_r/activation	peri_r/activation	rect_fem_r/activation	vas_med_r/activation	vas_int_r/activation	vas_lat_r/activation	med_gas_r/activation	lat_gas_r/activation	soleus_r/activation	tib_post_r/activation	flex_dig_r/activation	flex_hal_r/activation	tib_ant_r/activation	per_brev_r/activation	per_long_r/activation	per_tert_r/activation	ext_dig_r/activation	ext_hal_r/activation	ercspn_r/activation	intobl_r/activation	extobl_r/activation	
          0.52324204	         -2.92111701	          1.36312107	         -5.13679648	          0.65405256	          0.86220729	          0.00079445	         30.60801781	          1.90844883	         -2.94388406	        -16.97590507	         -1.21219597	          7.28991925	        -18.06517448	        -10.29912527	          2.30277052	         -0.12054906	          5.22643786	         14.59042041	         -0.32737653	         -9.03819414	          0.95680813	         28.20546482	         -1.09475784	          0.04312808	          1.71671926	         -8.09434757	        -13.57427089	          9.96185246	          5.65072189	        -13.47804186	         17.00309618	         15.92784926	         30.92505228	         86.51662706	         86.51662706	          0.05870937	          0.05001092	          0.05891052	          0.05001538	          0.05001443	          0.05003264	          0.05872057	          0.05871807	          0.05872919	          0.05002349	          0.05004199	          0.11165475	          0.15781943	          0.13572924	          0.14947720	          0.11391633	          0.05001584	          0.05871040	          0.05873123	          0.05001759	          0.05104614	          0.12377512	          0.05326709	          0.05001624	          0.27701126	          0.09145498	          0.06196937	          0.05000332	          0.15086468	          0.15446499	          0.12744508	          0.05872130	          0.05872166	          0.05872085	          0.05000187	          0.05000929	          0.05004208	          0.52647889	          0.24126719	          0.14949235	          0.19015786	          0.56085939	          0.05000198	          0.05000153	          0.09775303	          0.11014144	          0.28286031	          0.09803068	          0.05001306	          0.27560328	          0.18932750	          0.09528788	          0.05004274	          0.05000698	          0.05000479	          0.06512080	          0.07318595	          0.11754509	          0.08465893	          0.05003177	          0.05007036	          0.05002776	          0.24647004	          0.05836041	          0.05002081	          0.05006091	          0.05004363	          0.05003426	          0.25306691	          0.47262446	          0.05000463	          0.05000838	          0.05000166	          0.16003041	          0.13092038	          0.07083036	          0.06050590	          0.24857710	          0.32515408	          0.20501380	          0.20368689	          0.19599478	          0.24493225	          0.05000081	          0.12968686	          0.20513321	          0.05000374	          0.05000198	          0.05000332	          0.05000061	          0.05196367	          0.05282327	
          0.53370689	         -2.90885513	          1.46631203	         -5.35032361	          0.67001266	          0.86124541	          0.00057890	         29.94775563	          2.30252390	         -2.73138357	        -16.64884243	         -1.45887258	          7.07738009	        -17.96266794	        -12.44291356	          1.94918762	         -1.12339004	          4.77667290	         15.31683300	         -0.39786317	         -9.39446233	          1.15938656	         28.86461108	         -0.89681624	         -0.22721969	          1.77727451	         -9.03015768	        -13.57660471	          9.73109070	          5.37496648	        -13.51225849	         17.23526957	         15.83802744	         31.84038191	         86.51662706	         86.51662706	          0.05000111	          0.05000500	          0.09973175	          0.05000208	          0.05000375	          0.05000623	          0.05000110	          0.05000246	          0.05000806	          0.05000256	          0.05002569	          0.09507719	          0.13438465	          0.36417923	          0.25981763	          0.10287194	          0.05000634	          0.05003458	          0.05001846	          0.05872022	          0.05872337	          0.13584745	          0.05000188	          0.06895869	          0.53218540	          0.11174140	          0.07141805	          0.06896455	          0.26471818	          0.25718902	          0.21944974	          0.05000063	          0.05000110	          0.05000019	          0.05000178	          0.05872483	          0.05002692	          0.64009098	          0.20543968	          0.12730686	          0.52294635	          0.59455989	          0.08448714	          0.05000030	          0.08323572	          0.09378433	          0.24085328	          0.08347263	          0.05000361	          0.23467538	          0.16121159	          0.08113796	          0.05015021	          0.05000720	          0.05001233	          0.05545059	          0.06231990	          0.18981941	          0.23842919	          0.24789386	          0.05044584	          0.13254190	          0.20987059	          0.05167423	          0.05001295	          0.05002798	          0.05001898	          0.05002157	          0.21548426	          0.40496677	          0.05000309	          0.05012806	          0.05872469	          0.13626618	          0.11162222	          0.13118318	          0.13117335	          0.21166061	          0.27686519	          0.17456694	          0.17343819	          0.16689055	          0.20855903	          0.13428375	          0.11042842	          0.17466966	          0.05000590	          0.13682295	          0.05003976	          0.05000136	          0.07118383	          0.05829780	
          0.54417173	         -2.89250412	          1.57872274	         -5.54092078	          0.68615451	          0.86005546	          0.00039558	         29.11515367	          2.64586224	         -2.44160946	        -16.24590463	         -1.69582128	          6.84833361	        -18.27662873	        -14.75902555	          1.85723750	         -2.09833511	          4.26903661	         15.97140651	         -0.53943773	         -9.52660715	          1.34760142	         28.81463802	         -0.68772740	         -0.51509344	          1.82552181	         -9.95343000	        -13.59230495	          9.57435532	          5.03211318	        -13.55447367	         17.39805256	         15.72550193	         32.77599274	         86.51662706	         86.51662706	          0.31755376	          0.29433295	          0.38789975	          0.09380270	          0.05001080	          0.42044104	          0.08666122	          0.10267436	          0.08830818	          0.05000243	          0.05001007	          0.08099113	          0.23989868	          0.31009667	          0.22123920	          0.14701047	          0.05000574	          0.06903783	          0.11160355	          0.05000221	          0.05000318	          0.12506705	          0.05872200	          0.05872022	          0.45315040	          0.09514911	          0.25140283	          0.05872272	          0.22955731	          0.24252893	          0.19953845	          0.05871846	          0.05871571	          0.05872065	          0.05000162	          0.05000748	          0.05001599	          0.58541304	          0.17493066	          0.10840078	          0.44529172	          0.57669118	          0.07194022	          0.05000260	          0.08025191	          0.07985640	          0.28459756	          0.07107674	          0.05000542	          0.19982637	          0.13727174	          0.06908930	          0.05003554	          0.05001472	          0.05002827	          0.05000142	          0.05306829	          0.17539718	          0.32457649	          0.21108364	          0.05884705	          0.11286446	          0.21596028	          0.06920364	          0.05326782	          0.05059335	          0.05869091	          0.05872524	          0.18348382	          0.38034875	          0.05872025	          0.05002528	          0.05000452	          0.11602942	          0.09504636	          0.11170197	          0.11169339	          0.18022665	          0.23574781	          0.14864179	          0.14768152	          0.14210805	          0.17758759	          0.23035241	          0.12446075	          0.17263459	          0.32653259	          0.23272293	          0.14734022	          0.07953150	          0.06061233	          0.05871939	
          0.55463657	         -2.87442977	          1.69741235	         -5.70336862	          0.70225059	          0.85870314	          0.00021368	         28.15481372	          2.96577615	         -2.14040960	        -15.73282825	         -1.91882799	          6.61739693	        -18.57035054	        -17.29157248	          1.99757067	         -2.95389759	          3.71767072	         16.53023973	         -0.61533509	         -9.26040823	          1.64006661	         27.63795634	         -0.48772654	         -0.81235953	          1.86373860	        -10.81335768	        -13.61656731	          9.50346238	          4.66149780	        -13.60517298	         17.50973604	         15.56553651	         33.70236892	         86.51662706	         86.51662706	          0.40581507	          0.46194795	          0.52530368	          0.29947243	          0.39325902	          0.38082547	          0.07379230	          0.09884052	          0.07519641	          0.06896635	          0.05002115	          0.06896351	          0.20427144	          0.26404576	          0.18838878	          0.14913591	          0.05000734	          0.05878853	          0.09503389	          0.28801734	          0.20481706	          0.14358758	          0.05000224	          0.05000194	          0.38585329	          0.08102571	          0.21408081	          0.05000207	          0.30814156	          0.32761421	          0.26882604	          0.05000026	          0.05000052	          0.05000008	          0.06594562	          0.05003026	          0.05000478	          0.69745558	          0.14895196	          0.09230244	          0.47268456	          0.57508397	          0.35160803	          0.06784024	          0.06896252	          0.06799694	          0.24233322	          0.06052234	          0.05000184	          0.18012212	          0.11688906	          0.05883202	          0.05038167	          0.05000720	          0.05000634	          0.05001451	          0.05879124	          0.15985709	          0.27637489	          0.17973785	          0.05011288	          0.09610577	          0.25891849	          0.05893643	          0.05001438	          0.05002376	          0.05001528	          0.05001036	          0.15623801	          0.35599840	          0.05000234	          0.05001157	          0.05001002	          0.09879885	          0.08093159	          0.09511359	          0.09510623	          0.15346103	          0.20073701	          0.12656689	          0.12576363	          0.12100845	          0.15122135	          0.22660760	          0.12264006	          0.14728964	          0.27804185	          0.24321982	          0.12546108	          0.12407116	          0.05161079	          0.05000101	
